HIERARCHY
ROOT Hips
{
	OFFSET -37.322651 -40.248280 87.840942
	CHANNELS 6 Xposition Yposition Zposition Zrotation Yrotation Xrotation
	JOINT Spine
	{
		OFFSET 0.000000 2.080109 8.814247
		CHANNELS 6 Xposition Yposition Zposition Zrotation Yrotation Xrotation
		JOINT Spine1
		{
			OFFSET 0.000000 0.000000 8.844139
			CHANNELS 6 Xposition Yposition Zposition Zrotation Yrotation Xrotation
			JOINT Spine2
			{
				OFFSET 0.000000 0.000000 11.682266
				CHANNELS 6 Xposition Yposition Zposition Zrotation Yrotation Xrotation
				JOINT Spine3
				{
					OFFSET 0.000000 0.000004 11.746704
					CHANNELS 6 Xposition Yposition Zposition Zrotation Yrotation Xrotation
					JOINT Neck
					{
						OFFSET 0.000000 0.000000 17.658264
						CHANNELS 6 Xposition Yposition Zposition Zrotation Yrotation Xrotation
						JOINT Neck1
						{
							OFFSET 0.000000 0.000000 5.101517
							CHANNELS 6 Xposition Yposition Zposition Zrotation Yrotation Xrotation
							JOINT Head
							{
								OFFSET 0.000000 0.000000 5.101517
								CHANNELS 6 Xposition Yposition Zposition Zrotation Yrotation Xrotation
								JOINT HeadEnd
								{
									OFFSET 0.000000 0.000000 11.655090
									CHANNELS 6 Xposition Yposition Zposition Zrotation Yrotation Xrotation
									End Site
									{
										OFFSET 0.000000 0.000000 0.100006
									}
								}
							}
						}
					}
					JOINT RightShoulder
					{
						OFFSET -2.625389 0.000000 11.175217
						CHANNELS 6 Xposition Yposition Zposition Zrotation Yrotation Xrotation
						JOINT RightArm
						{
							OFFSET 0.000000 0.000000 10.434723
							CHANNELS 6 Xposition Yposition Zposition Zrotation Yrotation Xrotation
							JOINT RightForeArm
							{
								OFFSET 0.000000 0.000004 29.628418
								CHANNELS 6 Xposition Yposition Zposition Zrotation Yrotation Xrotation
								JOINT RightHand
								{
									OFFSET 0.000000 0.000000 22.857605
									CHANNELS 6 Xposition Yposition Zposition Zrotation Yrotation Xrotation
									JOINT RightHandThumb1
									{
										OFFSET -2.867321 -2.944290 3.959564
										CHANNELS 6 Xposition Yposition Zposition Zrotation Yrotation Xrotation
										JOINT RightHandThumb2
										{
											OFFSET 0.000000 0.000000 3.350403
											CHANNELS 6 Xposition Yposition Zposition Zrotation Yrotation Xrotation
											JOINT RightHandThumb3
											{
												OFFSET 0.000000 0.000000 3.756516
												CHANNELS 6 Xposition Yposition Zposition Zrotation Yrotation Xrotation
												JOINT RightHandThumb4
												{
													OFFSET 0.000000 0.000000 3.147339
													CHANNELS 6 Xposition Yposition Zposition Zrotation Yrotation Xrotation
													End Site
													{
														OFFSET 0.000000 0.000000 0.100006
													}
												}
											}
										}
									}
									JOINT RightHandIndex1
									{
										OFFSET -0.086754 -2.345280 10.030899
										CHANNELS 6 Xposition Yposition Zposition Zrotation Yrotation Xrotation
										JOINT RightHandIndex2
										{
											OFFSET 0.000000 0.000000 4.061096
											CHANNELS 6 Xposition Yposition Zposition Zrotation Yrotation Xrotation
											JOINT RightHandIndex3
											{
												OFFSET 0.000000 0.000000 3.248871
												CHANNELS 6 Xposition Yposition Zposition Zrotation Yrotation Xrotation
												JOINT RightHandIndex4
												{
													OFFSET 0.000000 0.000000 2.639709
													CHANNELS 6 Xposition Yposition Zposition Zrotation Yrotation Xrotation
													End Site
													{
														OFFSET 0.000000 0.000000 0.100006
													}
												}
											}
										}
									}
									JOINT RightHandMiddle1
									{
										OFFSET 0.104103 -0.006767 9.502945
										CHANNELS 6 Xposition Yposition Zposition Zrotation Yrotation Xrotation
										JOINT RightHandMiddle2
										{
											OFFSET 0.000000 0.000000 4.568726
											CHANNELS 6 Xposition Yposition Zposition Zrotation Yrotation Xrotation
											JOINT RightHandMiddle3
											{
												OFFSET 0.000000 0.000000 3.654984
												CHANNELS 6 Xposition Yposition Zposition Zrotation Yrotation Xrotation
												JOINT RightHandMiddle4
												{
													OFFSET 0.000000 0.000000 2.741241
													CHANNELS 6 Xposition Yposition Zposition Zrotation Yrotation Xrotation
													End Site
													{
														OFFSET 0.000000 0.000000 0.100006
													}
												}
											}
										}
									}
									JOINT RightHandRing1
									{
										OFFSET 0.086754 2.267441 8.921707
										CHANNELS 6 Xposition Yposition Zposition Zrotation Yrotation Xrotation
										JOINT RightHandRing2
										{
											OFFSET 0.000000 0.000000 4.061096
											CHANNELS 6 Xposition Yposition Zposition Zrotation Yrotation Xrotation
											JOINT RightHandRing3
											{
												OFFSET 0.000000 0.000000 3.654984
												CHANNELS 6 Xposition Yposition Zposition Zrotation Yrotation Xrotation
												JOINT RightHandRing4
												{
													OFFSET 0.000000 0.000000 2.741241
													CHANNELS 6 Xposition Yposition Zposition Zrotation Yrotation Xrotation
													End Site
													{
														OFFSET 0.000000 0.000000 0.100006
													}
												}
											}
										}
									}
									JOINT RightHandPinky1
									{
										OFFSET -0.173504 4.467197 7.976990
										CHANNELS 6 Xposition Yposition Zposition Zrotation Yrotation Xrotation
										JOINT RightHandPinky2
										{
											OFFSET 0.000000 0.000000 3.350403
											CHANNELS 6 Xposition Yposition Zposition Zrotation Yrotation Xrotation
											JOINT RightHandPinky3
											{
												OFFSET 0.000000 0.000000 2.842758
												CHANNELS 6 Xposition Yposition Zposition Zrotation Yrotation Xrotation
												JOINT RightHandPinky4
												{
													OFFSET 0.000000 0.000000 2.639709
													CHANNELS 6 Xposition Yposition Zposition Zrotation Yrotation Xrotation
													End Site
													{
														OFFSET 0.000000 0.000000 0.100006
													}
												}
											}
										}
									}
									JOINT RightForeArmEnd
									{
										OFFSET 0.000000 0.000000 0.000000
										CHANNELS 6 Xposition Yposition Zposition Zrotation Yrotation Xrotation
										End Site
										{
											OFFSET 0.000000 0.000000 0.100006
										}
									}
								}
								JOINT RightArmEnd
								{
									OFFSET 0.000000 0.000000 0.000000
									CHANNELS 6 Xposition Yposition Zposition Zrotation Yrotation Xrotation
									End Site
									{
										OFFSET 0.000000 0.000000 0.100006
									}
								}
							}
						}
					}
					JOINT LeftShoulder
					{
						OFFSET 2.625389 0.000000 11.175217
						CHANNELS 6 Xposition Yposition Zposition Zrotation Yrotation Xrotation
						JOINT LeftArm
						{
							OFFSET 0.000000 0.000000 10.813629
							CHANNELS 6 Xposition Yposition Zposition Zrotation Yrotation Xrotation
							JOINT LeftForeArm
							{
								OFFSET 0.000000 0.000004 28.724777
								CHANNELS 6 Xposition Yposition Zposition Zrotation Yrotation Xrotation
								JOINT LeftHand
								{
									OFFSET 0.644382 0.328873 25.716171
									CHANNELS 6 Xposition Yposition Zposition Zrotation Yrotation Xrotation
									JOINT LeftHandThumb1
									{
										OFFSET 2.867323 -2.944290 3.959564
										CHANNELS 6 Xposition Yposition Zposition Zrotation Yrotation Xrotation
										JOINT LeftHandThumb2
										{
											OFFSET 0.000000 0.000000 3.350403
											CHANNELS 6 Xposition Yposition Zposition Zrotation Yrotation Xrotation
											JOINT LeftHandThumb3
											{
												OFFSET 0.000000 0.000000 3.756516
												CHANNELS 6 Xposition Yposition Zposition Zrotation Yrotation Xrotation
												JOINT LeftHandThumb4
												{
													OFFSET 0.000000 0.000000 3.100006
													CHANNELS 6 Xposition Yposition Zposition Zrotation Yrotation Xrotation
													End Site
													{
														OFFSET 0.000000 0.000000 0.100006
													}
												}
											}
										}
									}
									JOINT LeftHandIndex1
									{
										OFFSET 0.086754 -2.345280 10.030899
										CHANNELS 6 Xposition Yposition Zposition Zrotation Yrotation Xrotation
										JOINT LeftHandIndex2
										{
											OFFSET 0.000000 0.000000 4.061096
											CHANNELS 6 Xposition Yposition Zposition Zrotation Yrotation Xrotation
											JOINT LeftHandIndex3
											{
												OFFSET 0.000000 0.000000 3.248871
												CHANNELS 6 Xposition Yposition Zposition Zrotation Yrotation Xrotation
												JOINT LeftHandIndex4
												{
													OFFSET 0.000000 0.000000 2.639709
													CHANNELS 6 Xposition Yposition Zposition Zrotation Yrotation Xrotation
													End Site
													{
														OFFSET 0.000000 0.000000 0.100006
													}
												}
											}
										}
									}
									JOINT LeftHandMiddle1
									{
										OFFSET -0.104103 -0.006767 9.502945
										CHANNELS 6 Xposition Yposition Zposition Zrotation Yrotation Xrotation
										JOINT LeftHandMiddle2
										{
											OFFSET 0.000000 0.000000 4.568726
											CHANNELS 6 Xposition Yposition Zposition Zrotation Yrotation Xrotation
											JOINT LeftHandMiddle3
											{
												OFFSET 0.000000 0.000000 3.654984
												CHANNELS 6 Xposition Yposition Zposition Zrotation Yrotation Xrotation
												JOINT LeftHandMiddle4
												{
													OFFSET 0.000000 0.000000 2.741241
													CHANNELS 6 Xposition Yposition Zposition Zrotation Yrotation Xrotation
													End Site
													{
														OFFSET 0.000000 0.000000 0.100006
													}
												}
											}
										}
									}
									JOINT LeftHandRing1
									{
										OFFSET -0.086754 2.267441 8.921707
										CHANNELS 6 Xposition Yposition Zposition Zrotation Yrotation Xrotation
										JOINT LeftHandRing2
										{
											OFFSET 0.000000 0.000000 4.061096
											CHANNELS 6 Xposition Yposition Zposition Zrotation Yrotation Xrotation
											JOINT LeftHandRing3
											{
												OFFSET 0.000000 0.000000 3.654984
												CHANNELS 6 Xposition Yposition Zposition Zrotation Yrotation Xrotation
												JOINT LeftHandRing4
												{
													OFFSET 0.000000 0.000000 2.741241
													CHANNELS 6 Xposition Yposition Zposition Zrotation Yrotation Xrotation
													End Site
													{
														OFFSET 0.000000 0.000000 0.100006
													}
												}
											}
										}
									}
									JOINT LeftHandPinky1
									{
										OFFSET 0.173504 4.467197 7.976990
										CHANNELS 6 Xposition Yposition Zposition Zrotation Yrotation Xrotation
										JOINT LeftHandPinky2
										{
											OFFSET 0.000000 0.000000 3.350403
											CHANNELS 6 Xposition Yposition Zposition Zrotation Yrotation Xrotation
											JOINT LeftHandPinky3
											{
												OFFSET 0.000000 0.000000 2.842758
												CHANNELS 6 Xposition Yposition Zposition Zrotation Yrotation Xrotation
												JOINT LeftHandPinky4
												{
													OFFSET 0.000000 0.000000 2.639709
													CHANNELS 6 Xposition Yposition Zposition Zrotation Yrotation Xrotation
													End Site
													{
														OFFSET 0.000000 0.000000 0.100006
													}
												}
											}
										}
									}
									JOINT LeftForeArmEnd
									{
										OFFSET 0.000000 0.000000 0.000000
										CHANNELS 6 Xposition Yposition Zposition Zrotation Yrotation Xrotation
										End Site
										{
											OFFSET 0.000000 0.000000 0.100006
										}
									}
								}
								JOINT LeftArmEnd
								{
									OFFSET 0.000000 0.000000 0.000000
									CHANNELS 6 Xposition Yposition Zposition Zrotation Yrotation Xrotation
									End Site
									{
										OFFSET 0.000000 0.000000 0.100006
									}
								}
							}
						}
					}
				}
			}
		}
	}
	JOINT RightUpLeg
	{
		OFFSET -11.289944 0.000000 0.000000
		CHANNELS 6 Xposition Yposition Zposition Zrotation Yrotation Xrotation
		JOINT RightLeg
		{
			OFFSET 0.000000 -0.000004 -38.200321
			CHANNELS 6 Xposition Yposition Zposition Zrotation Yrotation Xrotation
			JOINT RightFoot
			{
				OFFSET 0.000000 -0.000004 -39.900856
				CHANNELS 6 Xposition Yposition Zposition Zrotation Yrotation Xrotation
				JOINT RightToeBase
				{
					OFFSET 0.000000 -15.261639 0.000001
					CHANNELS 6 Xposition Yposition Zposition Zrotation Yrotation Xrotation
					JOINT RightToeBaseEnd
					{
						OFFSET 0.000000 -7.370708 0.000001
						CHANNELS 6 Xposition Yposition Zposition Zrotation Yrotation Xrotation
						End Site
						{
							OFFSET 0.000000 0.000000 0.100000
						}
					}
				}
				JOINT RightLegEnd
				{
					OFFSET 0.000000 0.000000 0.000000
					CHANNELS 6 Xposition Yposition Zposition Zrotation Yrotation Xrotation
					End Site
					{
						OFFSET 0.000000 0.000000 0.100000
					}
				}
			}
			JOINT RightUpLegEnd
			{
				OFFSET 0.000000 0.000000 0.000000
				CHANNELS 6 Xposition Yposition Zposition Zrotation Yrotation Xrotation
				End Site
				{
					OFFSET 0.000000 0.000000 0.099998
				}
			}
		}
	}
	JOINT LeftUpLeg
	{
		OFFSET 11.315662 0.000000 0.000000
		CHANNELS 6 Xposition Yposition Zposition Zrotation Yrotation Xrotation
		JOINT LeftLeg
		{
			OFFSET 0.000000 -0.000004 -38.200321
			CHANNELS 6 Xposition Yposition Zposition Zrotation Yrotation Xrotation
			JOINT LeftFoot
			{
				OFFSET 0.000000 -0.000004 -39.900856
				CHANNELS 6 Xposition Yposition Zposition Zrotation Yrotation Xrotation
				JOINT LeftToeBase
				{
					OFFSET 0.000000 -15.261639 0.000001
					CHANNELS 6 Xposition Yposition Zposition Zrotation Yrotation Xrotation
					JOINT LeftToeBaseEnd
					{
						OFFSET 0.000000 -7.539997 0.000001
						CHANNELS 6 Xposition Yposition Zposition Zrotation Yrotation Xrotation
						End Site
						{
							OFFSET 0.000000 0.000000 0.100000
						}
					}
				}
				JOINT LeftLegEnd
				{
					OFFSET 0.000000 0.000000 0.000000
					CHANNELS 6 Xposition Yposition Zposition Zrotation Yrotation Xrotation
					End Site
					{
						OFFSET 0.000000 0.000000 0.100000
					}
				}
			}
			JOINT LeftUpLegEnd
			{
				OFFSET 0.000000 0.000000 0.000000
				CHANNELS 6 Xposition Yposition Zposition Zrotation Yrotation Xrotation
				End Site
				{
					OFFSET 0.000000 0.000000 0.099998
				}
			}
		}
	}
}
MOTION
Frames: 2
Frame Time: 0.016667
14.381836 -6.872177 85.530304 -7.860988 -7.472850 -18.238149 -0.000001 2.080105 8.814251 1.211330 4.072932 6.052538 -0.000003 0.000002 8.844162 -1.992335 -6.360244 4.101157 -0.000000 0.000001 11.682273 3.128728 10.365203 14.147883 0.000002 0.000003 11.746716 -0.088360 1.830279 1.267778 0.000000 0.000003 17.658239 -2.227630 3.078154 23.294191 -0.000000 0.000004 5.101521 -7.019099 4.004788 -1.963024 -0.000001 -0.000001 5.101534 3.728947 -2.548924 -29.372412 0.000001 0.000000 11.655060 -0.000000 0.000000 -0.000000 -2.625387 0.000007 11.175204 8.094081 -95.174506 -0.603426 -0.000007 0.000002 10.434738 -27.310298 -34.091636 47.548031 0.000009 0.000007 29.628420 12.844688 1.107667 92.402576 0.000002 -0.000008 22.857595 -45.945579 29.888973 -15.756019 -2.867315 -2.944311 3.959576 32.750528 -12.655500 59.097010 0.000001 0.000006 3.350416 -2.747856 2.501702 -5.370351 -0.000001 0.000008 3.756521 -1.883129 1.764857 -3.715644 -0.000006 -0.000009 3.147353 -0.000000 -0.000002 -0.000000 -0.086751 -2.345286 10.030921 -5.130298 22.488352 8.405470 -0.000001 -0.000004 4.061123 0.514193 -0.000018 -0.000034 -0.000003 -0.000004 3.248854 0.014321 0.000002 0.001580 -0.000008 -0.000004 2.639709 0.000001 -0.000001 -0.000001 0.104102 -0.006769 9.502961 0.076480 20.943691 4.664960 -0.000006 0.000003 4.568740 0.512525 0.000052 0.000009 -0.000002 -0.000001 3.654968 0.027128 -0.000001 -0.000001 0.000009 -0.000002 2.741241 -0.000001 -0.000001 -0.000001 0.086754 2.267436 8.921694 8.799028 21.517874 -0.535653 -0.000007 0.000005 4.061101 -1.023769 0.011610 -0.000219 0.000009 -0.000000 3.655000 -0.020926 -0.006170 -0.000984 -0.000003 -0.000000 2.741243 0.000002 0.000000 -0.000001 -0.173509 4.467196 7.977016 18.036110 23.723947 -5.210332 -0.000005 -0.000001 3.350424 -2.034175 -0.037115 0.001280 -0.000002 0.000006 2.842739 -0.028244 0.020105 -0.007655 0.000005 -0.000000 2.639709 0.000000 -0.000002 -0.000002 0.000003 -0.000003 -0.000001 -0.000002 -0.000003 -0.000002 0.000003 -0.000001 0.000016 0.000003 -0.000001 -0.000003 2.625398 0.000004 11.175198 -9.089517 91.242755 -1.973870 -0.000017 -0.000003 10.813638 13.264257 18.031563 33.993131 0.000004 0.000003 28.724789 -12.487684 -1.063547 97.314602 0.644409 0.328876 25.716171 47.303322 -38.227688 -4.775117 2.867298 -2.944308 3.959585 -33.272802 11.458635 61.322244 -0.000006 -0.000005 3.350405 0.293529 -0.290492 -0.591544 0.000013 -0.000014 3.756512 0.203518 -0.202111 -0.409451 -0.000006 -0.000003 3.100009 -0.000001 0.000002 -0.000002 0.086740 -2.345283 10.030907 -15.528729 -28.713156 16.418860 0.000004 0.000004 4.061111 0.531420 -0.028603 -0.000266 0.000001 0.000000 3.248867 0.029066 0.015946 0.000016 -0.000001 -0.000012 2.639725 -0.000001 0.000000 0.000000 -0.104118 -0.006765 9.502950 -9.722915 -29.094181 9.418940 -0.000005 -0.000004 4.568741 0.517324 -0.000011 -0.000057 0.000002 -0.000006 3.655003 0.026387 -0.000005 0.000290 -0.000000 -0.000009 2.741241 -0.000002 0.000000 0.000001 -0.086772 2.267446 8.921730 -0.375696 -28.622328 0.050339 0.000000 -0.000005 4.061114 -1.016681 0.000009 -0.000020 -0.000000 -0.000008 3.655000 -0.021472 0.000001 -0.003197 0.000003 -0.000012 2.741242 -0.000000 0.000001 0.000001 0.173495 4.467202 7.977010 9.371792 -25.447640 -7.884798 0.000005 -0.000000 3.350403 -2.040425 -0.000000 0.000026 -0.000001 -0.000000 2.842760 -0.031017 0.000003 0.003066 0.000002 0.000002 2.639725 -0.000002 0.000000 -0.000000 -0.000012 -0.000000 -0.000016 0.000000 -0.000002 -0.000000 0.000019 0.000001 0.000013 0.000003 -0.000003 -0.000000 -11.289941 -0.000008 -0.000008 2.183326 21.565337 11.712380 0.000002 -0.000010 -38.200336 -0.894852 0.508589 29.609348 -0.000001 -0.000004 -39.900856 -12.845346 -8.220419 12.382360 -0.000001 -15.261642 0.000006 -2.091081 1.365901 -26.059673 -0.000005 -7.370709 0.000001 0.000001 0.000000 0.000000 0.000001 -0.000002 -0.000000 -0.000003 -0.000001 0.000001 -0.000000 0.000000 -0.000001 -0.000000 -0.000000 0.000001 11.315663 -0.000002 -0.000004 2.771565 8.733806 17.268021 0.000002 -0.000008 -38.200314 0.146260 -0.037748 14.471446 0.000005 -0.000005 -39.900848 1.287185 -7.615949 12.550777 0.000005 -15.261631 0.000001 0.119869 0.869511 -27.412599 0.000007 -7.539997 0.000001 0.000000 -0.000000 -0.000000 0.000002 -0.000004 0.000001 -0.000000 -0.000001 -0.000003 0.000001 -0.000004 0.000000 -0.000001 0.000000 -0.000000 
14.725292 -6.838428 85.528404 -8.359866 -7.469156 -17.957436 -0.000001 2.080101 8.814256 1.220274 4.125333 5.999464 -0.000001 -0.000002 8.844141 -2.116289 -6.757469 4.195346 -0.000000 0.000001 11.682261 3.352192 10.933512 13.948999 -0.000003 0.000000 11.746696 -0.092921 1.824177 1.172049 0.000000 -0.000001 17.658264 -2.255649 2.703654 23.158194 0.000000 0.000004 5.101514 -6.923596 3.982866 -1.983466 -0.000003 0.000007 5.101531 3.721869 -2.518627 -29.300979 -0.000003 0.000000 11.655090 -0.000000 -0.000000 -0.000000 -2.625386 -0.000001 11.175222 8.204567 -94.834335 -0.644286 -0.000030 -0.000001 10.434723 -25.287621 -33.861575 47.841602 0.000008 0.000007 29.628401 12.639028 1.286321 94.125191 0.000017 -0.000002 22.857605 -46.394999 31.574530 -14.831261 -2.867315 -2.944305 3.959564 32.691341 -12.809296 58.820558 0.000000 0.000002 3.350435 -3.067625 2.763468 -5.974460 0.000011 -0.000002 3.756527 -2.099447 1.953265 -4.132406 -0.000006 0.000002 3.147353 0.000000 -0.000002 -0.000000 -0.086755 -2.345292 10.030937 -5.248583 21.630946 9.026918 -0.000007 -0.000003 4.061101 0.513650 -0.000024 -0.000032 -0.000013 -0.000005 3.248841 0.013803 0.000004 0.001578 -0.000009 -0.000005 2.639710 -0.000003 -0.000001 -0.000001 0.104091 -0.006768 9.502944 -0.061855 20.172561 5.118346 0.000002 0.000000 4.568723 0.511956 0.000075 0.000014 0.000004 0.000002 3.654988 0.026601 0.000007 0.000001 -0.000003 0.000002 2.741241 -0.000000 -0.000001 -0.000000 0.086753 2.267438 8.921688 8.681123 20.999278 -0.254645 -0.000005 -0.000004 4.061129 -1.023370 0.000013 -0.000013 0.000004 0.000004 3.654993 -0.020213 -0.007847 -0.001009 0.000004 0.000004 2.741226 0.000002 -0.000002 -0.000001 -0.173495 4.467194 7.977020 18.001800 23.503641 -4.972161 -0.000006 -0.000006 3.350399 -2.033529 0.016254 -0.000618 -0.000006 -0.000001 2.842755 -0.027610 -0.008813 -0.007087 -0.000004 0.000005 2.639710 -0.000002 0.000000 -0.000001 -0.000001 -0.000003 -0.000002 -0.000001 -0.000003 0.000001 -0.000002 0.000001 0.000000 -0.000002 0.000000 0.000000 2.625387 -0.000000 11.175220 -9.173851 91.450598 -1.782077 -0.000001 0.000001 10.813640 13.462338 19.326835 34.321946 0.000014 -0.000001 28.724764 -12.583603 -1.063812 98.548264 0.644388 0.328882 25.716179 46.051041 -39.002822 -3.976328 2.867319 -2.944307 3.959577 -33.272792 11.458622 61.321090 0.000002 -0.000009 3.350423 0.293515 -0.290523 -0.589256 -0.000009 -0.000005 3.756535 0.203527 -0.202078 -0.410573 -0.000007 -0.000008 3.100007 -0.000000 0.000001 -0.000000 0.086737 -2.345272 10.030912 -15.578232 -28.860872 16.205145 -0.000001 0.000005 4.061092 0.531337 0.031764 0.000290 0.000000 -0.000003 3.248871 0.028921 -0.017687 -0.000004 -0.000001 0.000000 2.639694 -0.000001 -0.000002 -0.000001 -0.104114 -0.006760 9.502922 -9.729909 -29.121280 9.337528 0.000002 -0.000000 4.568722 0.517110 -0.000016 -0.000056 -0.000001 -0.000009 3.654965 0.026585 -0.000002 0.000396 0.000001 -0.000000 2.741243 -0.000000 0.000001 -0.000001 -0.086776 2.267451 8.921722 -0.354539 -28.520486 0.254437 -0.000004 0.000002 4.061105 -1.016458 0.000025 -0.000015 -0.000001 -0.000008 3.655016 -0.021420 -0.000002 -0.003151 0.000001 -0.000001 2.741272 0.000001 0.000000 0.000000 0.173495 4.467205 7.976993 9.412446 -25.305456 -7.326735 -0.000008 0.000002 3.350430 -2.040287 -0.027955 0.001020 -0.000002 -0.000001 2.842756 -0.030776 0.015145 0.002857 0.000005 -0.000004 2.639724 -0.000000 0.000000 0.000001 0.000002 0.000008 0.000002 0.000000 -0.000001 -0.000004 0.000001 0.000005 -0.000001 -0.000002 -0.000002 0.000000 -11.289941 -0.000005 0.000001 2.148258 21.653571 10.908858 0.000004 -0.000008 -38.200321 -0.905583 0.523539 30.030945 0.000003 -0.000003 -39.900856 -13.154068 -7.945637 12.673304 0.000003 -15.261641 0.000003 -2.118603 1.371439 -26.044667 -0.000005 -7.370706 0.000002 0.000002 0.000000 -0.000001 0.000005 -0.000002 -0.000001 -0.000002 -0.000000 -0.000002 0.000002 0.000001 0.000008 -0.000001 0.000000 0.000000 11.315660 -0.000006 0.000009 2.966365 8.959815 17.066974 -0.000001 -0.000006 -38.200314 0.130845 -0.033584 14.369705 0.000003 -0.000005 -39.900856 1.683616 -7.817666 12.583371 0.000003 -15.261640 0.000000 0.142175 0.869781 -27.428686 -0.000001 -7.539996 0.000001 -0.000001 -0.000000 -0.000000 0.000001 -0.000000 0.000001 0.000000 -0.000000 -0.000001 0.000000 0.000001 0.000000 -0.000001 0.000000 -0.000000 
